<svg width="176" height="77" viewBox="0 0 176 77" fill="none" xmlns="http://www.w3.org/2000/svg">
<path fill-rule="evenodd" clip-rule="evenodd" d="M131 46.5V50.2501L135.382 51.3457C135.81 52.9492 136.445 54.4682 137.257 55.8721L134.93 59.7499L140.233 65.0532L144.105 62.7302C145.515 63.5483 147.042 64.1879 148.654 64.618L149.75 69H157.25L158.345 64.6181C159.949 64.1903 161.468 63.5553 162.872 62.7434L166.75 65.0699L172.053 59.7666L169.73 55.8951C170.548 54.4848 171.188 52.9579 171.618 51.3456L176 50.2501V42.7501L171.618 41.6546C171.19 40.051 170.555 38.532 169.743 37.1281L172.07 33.2502L166.767 27.9469L162.895 30.2701C161.485 29.4519 159.958 28.8123 158.346 28.3822L157.25 24H153.5V39.0002C153.5 39.0002 153.5 39.0002 153.5 39.0002C157.642 39.0002 161 42.358 161 46.5002C161 50.6423 157.642 54.0002 153.5 54.0002C149.358 54.0002 146 50.6423 146 46.5002C146 46.5001 146 46.5001 146 46.5H131Z" fill="#222222"/>
<path d="M13.6464 13.52C8.84644 13.52 6.44644 15.328 6.44644 18.944C6.44644 20.96 6.99044 22.352 8.07844 23.12C9.19844 23.856 11.4384 24.608 14.7984 25.376C18.1904 26.112 20.5904 27.088 21.9984 28.304C23.4064 29.488 24.1104 31.456 24.1104 34.208C24.1104 41.024 20.5744 44.432 13.5024 44.432C11.1664 44.432 8.23844 44.16 4.71844 43.616L2.99044 43.376L3.37444 40.304C7.72644 40.88 11.0384 41.168 13.3104 41.168C18.0464 41.168 20.4144 38.944 20.4144 34.496C20.4144 32.704 19.8864 31.424 18.8304 30.656C17.8064 29.856 15.8704 29.184 13.0224 28.64C9.27844 27.84 6.62244 26.816 5.05444 25.568C3.48644 24.288 2.70244 22.16 2.70244 19.184C2.70244 13.232 6.27044 10.256 13.4064 10.256C15.7424 10.256 18.5424 10.496 21.8064 10.976L23.4384 11.216L23.1024 14.336C18.6544 13.792 15.5024 13.52 13.6464 13.52ZM30.4941 44V10.784H34.1901V44H30.4941ZM42.3066 44V10.784H49.2186L61.9386 40.736H62.9466V10.784H66.5946V44H59.8266L46.9146 14.048H46.0026V44H42.3066ZM74.7441 44V10.784H81.6561L94.3761 40.736H95.3841V10.784H99.0321V44H92.2641L79.3521 14.048H78.4401V44H74.7441ZM107.182 44V10.784H127.39V14.048H110.878V25.52H124.51V28.736H110.878V40.736H127.39V44H107.182ZM152.001 44H133.713V10.784H137.409V40.688H152.001V44Z" fill="#222222"/>
<path d="M3.61966 63.17V69H1.92566V53.776H7.55766C9.171 53.776 10.381 54.15 11.1877 54.898C12.009 55.646 12.4197 56.812 12.4197 58.396C12.4197 60.7427 11.4883 62.2167 9.62566 62.818L12.5517 69H10.6817L7.93166 63.17H3.61966ZM7.57966 61.674C9.64766 61.674 10.6817 60.6107 10.6817 58.484C10.6817 56.3427 9.64033 55.272 7.55766 55.272H3.61966V61.674H7.57966ZM22.4829 67.636L23.1209 67.57L23.1649 68.868C21.4929 69.1027 20.0629 69.22 18.8749 69.22C17.2909 69.22 16.1689 68.7653 15.5089 67.856C14.8489 66.932 14.5189 65.502 14.5189 63.566C14.5189 59.7087 16.0516 57.78 19.1169 57.78C20.5983 57.78 21.7056 58.198 22.4389 59.034C23.1723 59.8553 23.5389 61.1533 23.5389 62.928L23.4509 64.182H16.1909C16.1909 65.3993 16.4109 66.3013 16.8509 66.888C17.2909 67.4747 18.0536 67.768 19.1389 67.768C20.2389 67.768 21.3536 67.724 22.4829 67.636ZM21.8889 62.862C21.8889 61.5127 21.6689 60.5593 21.2289 60.002C20.8036 59.4447 20.0996 59.166 19.1169 59.166C18.1489 59.166 17.4156 59.4593 16.9169 60.046C16.4329 60.6327 16.1836 61.5713 16.1689 62.862H21.8889ZM26.1104 73.884V58H27.7384V58.792C28.853 58.1173 29.953 57.78 31.0384 57.78C32.4317 57.78 33.4437 58.2273 34.0744 59.122C34.705 60.002 35.0204 61.4613 35.0204 63.5C35.0204 65.5387 34.6464 67.0053 33.8984 67.9C33.165 68.78 31.9404 69.22 30.2244 69.22C29.3297 69.22 28.5084 69.1393 27.7604 68.978V73.884H26.1104ZM30.7964 59.254C30.3564 59.254 29.8797 59.3273 29.3664 59.474C28.8677 59.6207 28.4717 59.7673 28.1784 59.914L27.7604 60.134V67.548C28.8017 67.7093 29.5937 67.79 30.1364 67.79C31.3244 67.79 32.153 67.4527 32.6224 66.778C33.1064 66.1033 33.3484 65.0033 33.3484 63.478C33.3484 61.9527 33.1284 60.8673 32.6884 60.222C32.263 59.5767 31.6324 59.254 30.7964 59.254ZM45.4779 61.322V66.954C45.5219 67.4967 45.9473 67.8193 46.7539 67.922L46.6879 69.22C45.5293 69.22 44.6566 68.9267 44.0699 68.34C42.7499 68.9267 41.4299 69.22 40.1099 69.22C39.0979 69.22 38.3279 68.934 37.7999 68.362C37.2719 67.79 37.0079 66.9687 37.0079 65.898C37.0079 64.8273 37.2793 64.0427 37.8219 63.544C38.3646 63.0307 39.2153 62.7153 40.3739 62.598L43.8279 62.268V61.322C43.8279 60.574 43.6666 60.0387 43.3439 59.716C43.0213 59.3933 42.5813 59.232 42.0239 59.232C40.8506 59.232 39.6333 59.3053 38.3719 59.452L37.6899 59.518L37.6239 58.264C39.2373 57.9413 40.6673 57.78 41.9139 57.78C43.1606 57.78 44.0626 58.066 44.6199 58.638C45.1919 59.21 45.4779 60.1047 45.4779 61.322ZM38.7019 65.81C38.7019 67.1593 39.2593 67.834 40.3739 67.834C41.3713 67.834 42.3539 67.6653 43.3219 67.328L43.8279 67.152V63.522L40.5719 63.83C39.9119 63.8887 39.4353 64.0793 39.1419 64.402C38.8486 64.7247 38.7019 65.194 38.7019 65.81ZM48.7334 69V58H50.3614V59.496C51.6374 58.616 52.9794 58.0367 54.3874 57.758V59.43C53.7714 59.5473 53.1261 59.7307 52.4514 59.98C51.7914 60.2293 51.2854 60.4493 50.9334 60.64L50.3834 60.926V69H48.7334ZM64.1049 61.322V66.954C64.1489 67.4967 64.5742 67.8193 65.3809 67.922L65.3149 69.22C64.1562 69.22 63.2836 68.9267 62.6969 68.34C61.3769 68.9267 60.0569 69.22 58.7369 69.22C57.7249 69.22 56.9549 68.934 56.4269 68.362C55.8989 67.79 55.6349 66.9687 55.6349 65.898C55.6349 64.8273 55.9062 64.0427 56.4489 63.544C56.9915 63.0307 57.8422 62.7153 59.0009 62.598L62.4549 62.268V61.322C62.4549 60.574 62.2935 60.0387 61.9709 59.716C61.6482 59.3933 61.2082 59.232 60.6509 59.232C59.4775 59.232 58.2602 59.3053 56.9989 59.452L56.3169 59.518L56.2509 58.264C57.8642 57.9413 59.2942 57.78 60.5409 57.78C61.7875 57.78 62.6895 58.066 63.2469 58.638C63.8189 59.21 64.1049 60.1047 64.1049 61.322ZM57.3289 65.81C57.3289 67.1593 57.8862 67.834 59.0009 67.834C59.9982 67.834 60.9809 67.6653 61.9489 67.328L62.4549 67.152V63.522L59.1989 63.83C58.5389 63.8887 58.0622 64.0793 57.7689 64.402C57.4755 64.7247 57.3289 65.194 57.3289 65.81ZM71.4744 57.78C71.9584 57.78 72.7797 57.868 73.9384 58.044L74.4664 58.11L74.4004 59.452C73.227 59.32 72.3617 59.254 71.8044 59.254C70.5577 59.254 69.707 59.5547 69.2524 60.156C68.8124 60.7427 68.5924 61.8427 68.5924 63.456C68.5924 65.0547 68.7977 66.1693 69.2084 66.8C69.6337 67.4307 70.5064 67.746 71.8264 67.746L74.4224 67.548L74.4884 68.912C73.1244 69.1173 72.105 69.22 71.4304 69.22C69.7144 69.22 68.5264 68.78 67.8664 67.9C67.221 67.02 66.8984 65.5387 66.8984 63.456C66.8984 61.3587 67.2504 59.892 67.9544 59.056C68.6584 58.2053 69.8317 57.78 71.4744 57.78ZM76.9424 69V58H78.5924V69H76.9424ZM76.9424 55.514V53.6H78.5924V55.514H76.9424ZM81.2709 63.478C81.2709 61.4687 81.6302 60.0167 82.3489 59.122C83.0676 58.2273 84.2776 57.78 85.9789 57.78C87.6949 57.78 88.9049 58.2273 89.6089 59.122C90.3276 60.0167 90.6869 61.4687 90.6869 63.478C90.6869 65.4873 90.3496 66.9467 89.6749 67.856C89.0002 68.7653 87.7682 69.22 85.9789 69.22C84.1896 69.22 82.9576 68.7653 82.2829 67.856C81.6082 66.9467 81.2709 65.4873 81.2709 63.478ZM82.9649 63.456C82.9649 65.0547 83.1556 66.1767 83.5369 66.822C83.9329 67.4673 84.7469 67.79 85.9789 67.79C87.2256 67.79 88.0396 67.4747 88.4209 66.844C88.8022 66.1987 88.9929 65.0693 88.9929 63.456C88.9929 61.8427 88.7802 60.7353 88.3549 60.134C87.9296 59.518 87.1376 59.21 85.9789 59.21C84.8349 59.21 84.0429 59.518 83.6029 60.134C83.1776 60.7353 82.9649 61.8427 82.9649 63.456ZM95.0279 69H93.3779V58H95.0059V58.77C96.1939 58.11 97.3306 57.78 98.4159 57.78C99.8826 57.78 100.865 58.176 101.364 58.968C101.877 59.76 102.134 61.168 102.134 63.192V69H100.506V63.236C100.506 61.7107 100.352 60.6693 100.044 60.112C99.7506 59.54 99.1126 59.254 98.1299 59.254C97.6606 59.254 97.1619 59.3273 96.6339 59.474C96.1206 59.606 95.7246 59.738 95.4459 59.87L95.0279 60.068V69ZM112.674 67.636L113.312 67.57L113.356 68.868C111.684 69.1027 110.254 69.22 109.066 69.22C107.482 69.22 106.36 68.7653 105.7 67.856C105.04 66.932 104.71 65.502 104.71 63.566C104.71 59.7087 106.243 57.78 109.308 57.78C110.79 57.78 111.897 58.198 112.63 59.034C113.364 59.8553 113.73 61.1533 113.73 62.928L113.642 64.182H106.382C106.382 65.3993 106.602 66.3013 107.042 66.888C107.482 67.4747 108.245 67.768 109.33 67.768C110.43 67.768 111.545 67.724 112.674 67.636ZM112.08 62.862C112.08 61.5127 111.86 60.5593 111.42 60.002C110.995 59.4447 110.291 59.166 109.308 59.166C108.34 59.166 107.607 59.4593 107.108 60.046C106.624 60.6327 106.375 61.5713 106.36 62.862H112.08ZM119.756 59.254C118.157 59.254 117.358 59.8113 117.358 60.926C117.358 61.4393 117.541 61.806 117.908 62.026C118.274 62.2313 119.11 62.4513 120.416 62.686C121.721 62.906 122.645 63.2213 123.188 63.632C123.73 64.0427 124.002 64.8127 124.002 65.942C124.002 67.0713 123.635 67.9 122.902 68.428C122.183 68.956 121.127 69.22 119.734 69.22C118.824 69.22 117.754 69.1173 116.522 68.912L115.862 68.802L115.95 67.372C117.622 67.6213 118.883 67.746 119.734 67.746C120.584 67.746 121.23 67.614 121.67 67.35C122.124 67.0713 122.352 66.6167 122.352 65.986C122.352 65.3407 122.161 64.908 121.78 64.688C121.398 64.4533 120.562 64.2333 119.272 64.028C117.981 63.8227 117.064 63.522 116.522 63.126C115.979 62.73 115.708 61.9967 115.708 60.926C115.708 59.8553 116.082 59.0633 116.83 58.55C117.592 58.0367 118.538 57.78 119.668 57.78C120.562 57.78 121.684 57.8827 123.034 58.088L123.65 58.198L123.606 59.606C121.978 59.3713 120.694 59.254 119.756 59.254Z" fill="#222222"/>
</svg>
